<?xml version="1.0" encoding="utf-8"?>
<!-- Generator: Adobe Illustrator 19.2.1, SVG Export Plug-In . SVG Version: 6.00 Build 0)  -->
<svg version="1.1" id="layer" xmlns="http://www.w3.org/2000/svg" xmlns:xlink="http://www.w3.org/1999/xlink" x="0px" y="0px"
	 viewBox="0 0 652 652" style="enable-background:new 0 0 652 652;" xml:space="preserve">
<style type="text/css">
	.st0{fill:#00609C;}
	.st1{fill:#FFFFFF;}
</style>
<path class="st0" d="M16.5,418.4l560.2-0.1c22,0,39.8-17.8,39.8-39.8V215.8h-600V418.4z"/>
<path class="st1" d="M334.5,328.2l-12.3-38.8l-12,38.8H334.5z M333.8,276.6l27.8,82.1h-17.5l-5.6-17h-32.7l-5.7,17h-17.5l25.7-75.8
	c1.3-3.7,4.8-6.3,8.7-6.3H333.8z M413.1,337.9c0,6-3.2,8-10.7,8h-17.1v-22.4h18.5c6.6,0,9.3,2.7,9.3,8.3V337.9z M385.3,289.4h16
	c6.1,0,8.7,2.1,8.7,6.7v7.3c0,4.8-2.4,7.6-8.9,7.6h-15.9V289.4z M416.9,315.9c6.7-2.7,9.8-6.5,9.8-13.3v-8.5
	c0-11.1-6.7-17.5-23.4-17.5h-34.7v82.1h37c16,0,24.1-7.3,24.1-18.8v-8.8C429.7,323.1,425,317.5,416.9,315.9 M252.4,288.2
	c-10.4,0.3-13.9,4-13.9,12.4v31.5c0,8.4,3.5,12.1,13.9,12.4v0.1h14.9c4.5,0,8.1,3.6,8.1,8.1v6h-23v-0.1
	c-21.4-0.2-30.6-8.9-30.6-23.8v-37c0-14.9,9.2-23.6,30.6-23.8h15.8c4.5,0,8.1,3.6,8.1,8.1v5.9H252.4 M571,345v13.7h-52.9v-69.2v-4.9
	c0-5.1,4.1-9.2,9.2-9.2h7.4v14.1V345H571z M485.1,328.2l-12.3-38.8l-12,38.8H485.1z M484.5,276.6l27.8,82.1h-17.5l-5.6-17h-32.7
	l-5.7,17h-17.5l24.9-73.5c1.7-5.1,6.6-8.6,12-8.6H484.5z M131.3,251.3l60.9,59.8c3.4,3.3,3.4,8.8,0,12.1l-60.8,59.8l0-33.4
	l28.6-28.2c2.4-2.3,2.4-6.1,0-8.5l-28.6-28.3V251.3z M120.1,284.6l-28.6,28.3c-2.4,2.3-2.4,6.1,0,8.5l28.6,28.2l0,33.4l-60.8-59.8
	c-3.4-3.3-3.4-8.8,0-12.1l60.9-59.8V284.6z"/>
</svg>
